<svg width="25" height="25" viewBox="0 0 25 25" fill="none" xmlns="http://www.w3.org/2000/svg">
<path d="M7.41536 8.14265C7.00624 8.13846 6.59779 8.17687 6.19661 8.25723L7.23828 5.75723L7.27995 5.66348L7.34245 5.49681C7.36631 5.43265 7.39415 5.37003 7.42578 5.30931C8.63411 2.50723 9.98828 1.63223 12.4362 2.2989L9.92578 8.14265H7.41536ZM17.582 8.14265C18.2269 8.14425 18.8685 8.23539 19.4883 8.41348L19.5091 8.4239C19.6549 7.82761 19.6477 7.20417 19.4883 6.6114C19.4664 6.51814 19.435 6.42738 19.3945 6.34056C19.3489 6.18129 19.2786 6.03015 19.1862 5.89265C19.1029 5.75723 19.0195 5.64265 18.9258 5.51765C18.1681 4.72562 17.2325 4.12569 16.1966 3.76765L13.8945 2.7989C13.7383 2.74681 13.582 2.6739 13.4362 2.62181L13.4049 2.69473L11.0612 8.14265H17.582ZM22.6654 14.7885V16.8197C22.6654 17.0281 22.6549 17.2364 22.6445 17.4343C22.4466 21.0801 20.4154 22.9166 16.5612 22.9166H8.4362C8.18879 22.9155 7.94173 22.8981 7.69661 22.8645C4.38411 22.6458 2.61328 20.8784 2.38411 17.5624C2.35122 17.3173 2.33383 17.0702 2.33203 16.8229V14.7916C2.33257 13.7956 2.62488 12.8215 3.17284 11.9898C3.7208 11.158 4.50041 10.505 5.41536 10.1114C6.0468 9.83925 6.72779 9.70093 7.41536 9.70515H17.582C18.079 9.70496 18.5735 9.7751 19.0508 9.91348C20.0962 10.2324 21.0115 10.8785 21.6622 11.7567C22.3129 12.6348 22.6645 13.6987 22.6654 14.7916V14.7885ZM15.8841 16.0801C15.8827 15.8734 15.8 15.6754 15.6538 15.5292C15.5076 15.383 15.3096 15.3003 15.1029 15.2989H13.2799V13.5416C13.2799 13.3344 13.1976 13.1357 13.0511 12.9892C12.9046 12.8427 12.7059 12.7604 12.4987 12.7604C12.2915 12.7604 12.0928 12.8427 11.9463 12.9892C11.7998 13.1357 11.7174 13.3344 11.7174 13.5416V15.302H9.89453C9.68733 15.302 9.48862 15.3843 9.3421 15.5308C9.19559 15.6774 9.11328 15.8761 9.11328 16.0833C9.11328 16.2905 9.19559 16.4892 9.3421 16.6357C9.48862 16.7822 9.68733 16.8645 9.89453 16.8645H11.7174V18.7499C11.7174 18.9571 11.7998 19.1559 11.9463 19.3024C12.0928 19.4489 12.2915 19.5312 12.4987 19.5312C12.7059 19.5312 12.9046 19.4489 13.0511 19.3024C13.1976 19.1559 13.2799 18.9571 13.2799 18.7499V16.8645H15.1029C15.2058 16.8647 15.3077 16.8444 15.4027 16.805C15.4978 16.7656 15.5841 16.7078 15.6567 16.6349C15.7293 16.562 15.7868 16.4754 15.8258 16.3802C15.8649 16.285 15.8847 16.183 15.8841 16.0801Z" fill="white"/>
</svg>
