<svg width="25" height="25" viewBox="0 0 25 25" fill="none" xmlns="http://www.w3.org/2000/svg">
<path d="M18.2795 1.78564H6.71937C5.41188 1.78936 4.159 2.31041 3.23446 3.23495C2.30992 4.15949 1.78888 5.41236 1.78516 6.71985L1.78516 18.28C1.78888 19.5875 2.30992 20.8404 3.23446 21.7649C4.159 22.6894 5.41188 23.2105 6.71937 23.2142H18.2795C19.587 23.2105 20.8399 22.6894 21.7644 21.7649C22.689 20.8404 23.21 19.5875 23.2137 18.28V6.71985C23.21 5.41236 22.689 4.15949 21.7644 3.23495C20.8399 2.31041 19.587 1.78936 18.2795 1.78564ZM16.8993 13.4233H13.647C13.622 13.4231 13.5971 13.4279 13.5739 13.4374C13.5508 13.4469 13.5297 13.4609 13.512 13.4787C13.4943 13.4964 13.4803 13.5174 13.4708 13.5406C13.4613 13.5638 13.4565 13.5886 13.4567 13.6137V16.8702C13.4567 17.1241 13.3558 17.3676 13.1763 17.5471C12.9968 17.7266 12.7533 17.8275 12.4994 17.8275C12.2456 17.8275 12.0021 17.7266 11.8226 17.5471C11.6431 17.3676 11.5422 17.1241 11.5422 16.8702V13.6137C11.5424 13.5886 11.5376 13.5638 11.5281 13.5406C11.5186 13.5174 11.5046 13.4964 11.4869 13.4787C11.4692 13.4609 11.4481 13.4469 11.4249 13.4374C11.4018 13.4279 11.3769 13.4231 11.3519 13.4233H8.09954C7.97383 13.4233 7.84935 13.3986 7.73322 13.3505C7.61708 13.3024 7.51156 13.2319 7.42267 13.143C7.33378 13.0541 7.26327 12.9486 7.21516 12.8324C7.16706 12.7163 7.1423 12.5918 7.1423 12.4661C7.1423 12.3404 7.16706 12.2159 7.21516 12.0998C7.26327 11.9836 7.33378 11.8781 7.42267 11.7892C7.51156 11.7003 7.61708 11.6298 7.73322 11.5817C7.84935 11.5336 7.97383 11.5089 8.09954 11.5089H11.3519C11.3769 11.509 11.4018 11.5043 11.4249 11.4948C11.4481 11.4853 11.4692 11.4712 11.4869 11.4535C11.5046 11.4358 11.5186 11.4148 11.5281 11.3916C11.5376 11.3684 11.5424 11.3436 11.5422 11.3185V8.06619C11.5422 7.81231 11.6431 7.56884 11.8226 7.38932C12.0021 7.2098 12.2456 7.10895 12.4994 7.10895C12.7533 7.10895 12.9968 7.2098 13.1763 7.38932C13.3558 7.56884 13.4567 7.81231 13.4567 8.06619V11.3185C13.4559 11.3439 13.4603 11.3692 13.4695 11.3929C13.4788 11.4166 13.4927 11.4381 13.5105 11.4563C13.5282 11.4745 13.5495 11.4888 13.5729 11.4986C13.5964 11.5084 13.6216 11.5133 13.647 11.5131H16.8993C17.1532 11.5131 17.3967 11.6139 17.5762 11.7935C17.7557 11.973 17.8566 12.2164 17.8566 12.4703C17.8566 12.7242 17.7557 12.9677 17.5762 13.1472C17.3967 13.3267 17.1532 13.4276 16.8993 13.4276V13.4233Z" fill="white"/>
</svg>
