<svg width="25" height="25" viewBox="0 0 25 25" fill="none" xmlns="http://www.w3.org/2000/svg">
<g id="Frame">
<g id="Group">
<path id="Vector" d="M19.873 14.6973C19.4689 14.6973 19.1406 15.0256 19.1406 15.4297C19.1406 15.8338 19.4689 16.1621 19.873 16.1621C20.2771 16.1621 20.6055 15.8338 20.6055 15.4297C20.6055 15.0256 20.2771 14.6973 19.873 14.6973Z" fill="white"/>
<path id="Vector_2" d="M24.2676 4.44336H7.38501V6.64062C7.38501 7.04546 7.05742 7.37305 6.65259 7.37305C6.24775 7.37305 5.92017 7.04546 5.92017 6.64062V4.44336H0.732422C0.327588 4.44336 0 4.77095 0 5.17578V9.57031C0 9.97515 0.327588 10.3027 0.732422 10.3027C1.94404 10.3027 2.92969 11.2884 2.92969 12.5C2.92969 13.7116 1.94404 14.6973 0.732422 14.6973C0.327588 14.6973 0 15.0249 0 15.4297V19.8242C0 20.2291 0.327588 20.5566 0.732422 20.5566H5.85938V18.3594C5.85938 17.9545 6.18696 17.627 6.5918 17.627C6.99663 17.627 7.32422 17.9545 7.32422 18.3594V20.5566H24.2676C24.6724 20.5566 25 20.2291 25 19.8242V5.17578C25 4.77095 24.6724 4.44336 24.2676 4.44336ZM7.32422 15.4297C7.32422 15.8345 6.99663 16.1621 6.5918 16.1621C6.18696 16.1621 5.85938 15.8345 5.85938 15.4297V13.9648C5.85938 13.56 6.18696 13.2324 6.5918 13.2324C6.99663 13.2324 7.32422 13.56 7.32422 13.9648V15.4297ZM7.32422 11.0352C7.32422 11.44 6.99663 11.7676 6.5918 11.7676C6.18696 11.7676 5.85938 11.44 5.85938 11.0352V9.57031C5.85938 9.16548 6.18696 8.83789 6.5918 8.83789C6.99663 8.83789 7.32422 9.16548 7.32422 9.57031V11.0352ZM11.8164 9.57031C11.8164 8.35869 12.8021 7.37305 14.0137 7.37305C15.2253 7.37305 16.2109 8.35869 16.2109 9.57031C16.2109 10.7819 15.2253 11.7676 14.0137 11.7676C12.8021 11.7676 11.8164 10.7819 11.8164 9.57031ZM13.6074 17.5039C13.2706 17.2793 13.1797 16.8251 13.4043 16.4882L19.2637 7.69917C19.4875 7.3623 19.9417 7.27217 20.2793 7.49604C20.6162 7.72065 20.7071 8.1748 20.4825 8.51172L14.6231 17.3008C14.4021 17.6327 13.9497 17.7308 13.6074 17.5039ZM19.873 17.627C18.6614 17.627 17.6758 16.6413 17.6758 15.4297C17.6758 14.2181 18.6614 13.2324 19.873 13.2324C21.0847 13.2324 22.0703 14.2181 22.0703 15.4297C22.0703 16.6413 21.0847 17.627 19.873 17.627Z" fill="white"/>
<path id="Vector_3" d="M14.0137 8.83789C13.6096 8.83789 13.2812 9.16621 13.2812 9.57031C13.2812 9.97441 13.6096 10.3027 14.0137 10.3027C14.4178 10.3027 14.7461 9.97441 14.7461 9.57031C14.7461 9.16621 14.4178 8.83789 14.0137 8.83789Z" fill="white"/>
</g>
</g>
</svg>
