<svg width="38" height="38" viewBox="0 0 38 38" fill="none" xmlns="http://www.w3.org/2000/svg">
<g id="Frame">
<g id="Group">
<path id="Vector" d="M19.0012 12.1288C21.9684 12.1288 24.6752 13.1699 26.1327 14.8357C26.1848 14.5754 26.2369 14.3151 26.2369 14.1069C26.2369 11.6083 23.0095 9.57812 19.0012 9.57812C15.0451 9.57812 11.7656 11.6083 11.7656 14.1069C11.7656 14.3672 11.8177 14.6274 11.8697 14.8877C13.3273 13.1699 16.0341 12.1288 19.0012 12.1288Z" fill="#2A3547"/>
<path id="Vector_2" d="M25.6633 25.2987L35.1373 15.8767V12.337L25.6633 2.86304H12.2852L2.86328 12.337V15.8767L12.2852 25.2987H25.6633ZM11.2962 16.085C10.9318 15.4603 10.7236 14.7836 10.7236 14.1069C10.7236 11.0356 14.4194 8.53701 19.0003 8.53701C23.5811 8.53701 27.277 11.0356 27.277 14.1069C27.277 17.2302 23.6331 19.6767 19.0003 19.6767C15.5647 19.6767 12.5975 18.2713 11.3482 16.2411C11.3482 16.137 11.2962 16.137 11.2962 16.085ZM12.5975 26.3397H25.351V35.137H12.5975V26.3397ZM26.4441 26.0274V34.4082L35.1373 25.663V17.3343L26.4441 26.0274ZM11.5564 26.0274L2.86328 17.3343V25.663L11.5564 34.4082V26.0274Z" fill="#2A3547"/>
</g>
</g>
</svg>
