<svg width="25" height="25" viewBox="0 0 25 25" fill="none" xmlns="http://www.w3.org/2000/svg">
<path d="M7.81457 15.7532C7.81457 15.4618 7.55874 15.2254 7.24286 15.2254C6.92699 15.2254 6.67122 15.4618 6.67122 15.7532C6.67122 16.0448 6.92704 16.2811 7.24286 16.2811C7.55874 16.2811 7.81457 16.0449 7.81457 15.7532ZM7.24286 11.4772C6.92769 11.4772 6.67122 11.7138 6.67122 12.005C6.67122 12.2961 6.92769 12.5329 7.24286 12.5329C7.55809 12.5329 7.81478 12.2961 7.81478 12.005C7.81478 11.7138 7.55809 11.4772 7.24286 11.4772ZM7.81457 8.25685C7.81457 7.96523 7.55874 7.72897 7.24286 7.72897C6.92699 7.72897 6.67122 7.96523 6.67122 8.25685C6.67122 8.54825 6.92704 8.78473 7.24286 8.78473C7.55874 8.78473 7.81457 8.54825 7.81457 8.25685ZM19.686 0.0424805C16.7512 0.0424805 14.372 2.42157 14.3723 5.3564C14.3723 8.29119 16.7514 10.6703 19.6862 10.6703C22.621 10.6703 24.9999 8.29119 24.9999 5.3564C24.9967 2.42308 22.6196 0.0458225 19.686 0.0424805ZM19.6613 4.97628C20.5744 4.97655 21.3378 5.67012 21.425 6.57888C21.5122 7.48791 20.8946 8.31415 19.9982 8.48761V8.9846C19.9982 9.19299 19.8294 9.36193 19.6209 9.36193C19.4125 9.36193 19.2436 9.19299 19.2436 8.9846V8.46993C18.4496 8.27642 17.8905 7.56559 17.8895 6.74841C17.8911 6.64944 17.9316 6.55509 18.0022 6.4857C18.0728 6.4163 18.1678 6.37741 18.2668 6.37741C18.3658 6.37741 18.4608 6.4163 18.5314 6.4857C18.602 6.55509 18.6424 6.64944 18.6441 6.74841C18.6441 7.31019 19.0996 7.76557 19.6613 7.76557C20.2231 7.76557 20.6785 7.31019 20.6785 6.74841C20.6785 6.18641 20.2231 5.73098 19.6613 5.73098C18.7641 5.73098 18.0086 5.06031 17.9021 4.16966C17.7956 3.2788 18.3716 2.44895 19.2436 2.23733V1.76147C19.2453 1.6625 19.2857 1.56815 19.3563 1.49875C19.4269 1.42935 19.5219 1.39047 19.6209 1.39047C19.7199 1.39047 19.8149 1.42935 19.8855 1.49875C19.9561 1.56815 19.9966 1.6625 19.9982 1.76147V2.21965C20.8308 2.382 21.4322 3.11094 21.4332 3.95912C21.4315 4.05808 21.391 4.15243 21.3205 4.22183C21.2499 4.29123 21.1549 4.33012 21.0559 4.33012C20.9569 4.33012 20.8619 4.29123 20.7913 4.22183C20.7207 4.15243 20.6802 4.05808 20.6785 3.95912C20.6779 3.40429 20.2328 2.95198 19.6778 2.94271C19.6474 2.94755 19.6166 2.94855 19.586 2.94567C19.0406 2.98632 18.6249 3.4508 18.6454 3.99744C18.6656 4.54381 19.1145 4.97633 19.6615 4.97633L19.6613 4.97628ZM13.5961 23.5278C13.285 23.2187 13.0381 22.8512 12.8695 22.4465C12.7008 22.0417 12.6138 21.6076 12.6134 21.1691V19.6575H0V21.1754C0.00630672 22.6001 1.16232 23.7522 2.58694 23.7541H13.8516C13.7591 23.6874 13.6735 23.6116 13.5962 23.5277L13.5961 23.5278Z" fill="white"/>
<path d="M14.5801 8.607H10.0101C9.91113 8.60533 9.81678 8.56484 9.74739 8.49426C9.67799 8.42368 9.6391 8.32866 9.6391 8.22968C9.6391 8.1307 9.67799 8.03568 9.74739 7.9651C9.81678 7.89452 9.91113 7.85403 10.0101 7.85235H14.1666C13.8019 7.06186 13.6143 6.20125 13.6168 5.33069C13.618 4.91024 13.6616 4.49098 13.7469 4.0791H3.59202L3.49219 18.9026H13.0093C13.0567 18.9007 13.1041 18.9086 13.1483 18.9259C13.1925 18.9431 13.2327 18.9694 13.2663 19.0029C13.2999 19.0364 13.3263 19.0766 13.3436 19.1207C13.361 19.1649 13.369 19.2123 13.3672 19.2597V21.1693C13.3742 22.5971 14.5323 23.7514 15.9601 23.754H15.9686C17.3909 23.7509 18.542 22.5973 18.542 21.1752V11.3167C17.7303 11.163 16.9593 10.8429 16.2774 10.3765C15.5956 9.91016 15.0177 9.30765 14.5801 8.60695V8.607ZM7.24204 17.0357C6.51079 17.0357 5.91575 16.4603 5.91575 15.753C5.91575 15.0459 6.51079 14.4705 7.24204 14.4705C7.97335 14.4705 8.56861 15.0459 8.56861 15.753C8.56861 16.4603 7.97352 17.0357 7.24204 17.0357ZM7.24204 13.2873C6.51079 13.2873 5.91575 12.7121 5.91575 12.0048C5.91575 11.2976 6.51079 10.7223 7.24204 10.7223C7.97335 10.7223 8.56861 11.2975 8.56861 12.0048C8.56861 12.7119 7.97352 13.2873 7.24204 13.2873ZM7.24204 9.53916C6.51079 9.53916 5.91575 8.96368 5.91575 8.25663C5.91575 7.54941 6.51079 6.97389 7.24204 6.97389C7.97335 6.97389 8.56861 7.54915 8.56861 8.25641C8.56861 8.96368 7.97352 9.53916 7.24204 9.53916ZM15.7592 16.1535H10.0101C9.91113 16.1518 9.81678 16.1113 9.74739 16.0408C9.67799 15.9702 9.6391 15.8752 9.6391 15.7762C9.6391 15.6772 9.67799 15.5822 9.74739 15.5116C9.81678 15.441 9.91113 15.4005 10.0101 15.3989H15.7592C15.8582 15.4005 15.9526 15.441 16.022 15.5116C16.0914 15.5822 16.1302 15.6772 16.1302 15.7762C16.1302 15.8752 16.0914 15.9702 16.022 16.0408C15.9526 16.1113 15.8582 16.1518 15.7592 16.1535ZM16.1366 12.0029C16.1366 12.2114 15.9677 12.3803 15.7592 12.3803H10.0101C9.91113 12.3786 9.81678 12.3381 9.74739 12.2675C9.67799 12.1969 9.6391 12.1019 9.6391 12.0029C9.6391 11.9039 9.67799 11.8089 9.74739 11.7383C9.81678 11.6678 9.91113 11.6273 10.0101 11.6256H15.7592C15.9677 11.6256 16.1366 11.7947 16.1366 12.0029Z" fill="white"/>
</svg>
