<svg width="512" height="342" viewBox="0 0 512 342" fill="none" xmlns="http://www.w3.org/2000/svg">
<path d="M512 293.489H463.469V342H512V293.489Z" fill="#EC6643"/>
<path d="M383.393 341.393V329.872H394.888V341.393H383.393Z" fill="#252C2C"/>
<path d="M414.739 341.275V294.096H426.726V341.275H414.739Z" fill="#252C2C"/>
<path d="M439.35 341.275V294.096H451.337V341.275H439.35Z" fill="#252C2C"/>
<path d="M439.291 340.962L415.883 300.324L426.645 294.096L450.053 334.733L439.291 340.962Z" fill="#252C2C"/>
<path d="M399.123 341.275V294.096H411.11V341.275H399.123Z" fill="#252C2C"/>
<path d="M371.261 292.883H0.606628V341.394H371.261V292.883Z" fill="#EC6643"/>
<path d="M8.72379 140.681H0.606628V92.077H8.72379C59.5458 92.077 100.886 50.775 100.886 0H149.535C149.535 77.562 86.3756 140.681 8.72379 140.681Z" fill="#89A3B8"/>
<g style="mix-blend-mode:multiply">
<path d="M8.72379 140.681H0.606628V92.077H8.72379C59.5458 92.077 100.886 50.775 100.886 0H149.535C149.535 77.562 86.3756 140.681 8.72379 140.681Z" fill="url(#paint0_linear_1_75)"/>
</g>
<path d="M508.36 140.681H241.679C164.045 140.681 100.886 77.562 100.886 0H149.535C149.535 50.775 190.875 92.077 241.697 92.077H508.36V140.681Z" fill="#89A3B8"/>
<path d="M61.5529 235.928C61.5529 241.562 60.2586 246.73 57.6519 251.395C55.0453 256.078 51.1982 259.811 46.1108 262.61C41.0233 265.409 34.6954 266.809 27.1451 266.809C23.4958 266.809 20.1701 266.611 17.1679 266.216C14.1658 265.822 11.2895 265.176 8.53903 264.279C5.78857 263.399 2.93024 262.197 0 260.69V237.256C4.53018 239.875 9.15025 241.885 13.8602 243.32C18.5701 244.738 22.8487 245.456 26.6598 245.456C28.9248 245.456 30.7765 245.151 32.2326 244.523C33.6708 243.895 34.7494 243.051 35.4684 241.957C36.1875 240.862 36.5291 239.624 36.5291 238.189C36.5291 236.645 36.0976 235.264 35.2527 234.062C34.4078 232.859 32.9157 231.567 30.7944 230.168C28.6732 228.768 25.6531 227.046 21.788 225.018C18.5342 223.242 15.6219 221.465 13.0153 219.653C10.4086 217.859 8.19747 215.831 6.34585 213.588C4.49423 211.345 3.07405 208.743 2.08532 205.765C1.07861 202.786 0.593238 199.287 0.593238 195.25C0.593238 189.221 1.94151 184.089 4.62007 179.836C7.3166 175.602 11.1277 172.354 16.0893 170.111C21.051 167.868 26.9474 166.755 33.7966 166.755C38.9919 166.755 43.8816 167.401 48.4657 168.693C53.0499 169.985 57.4003 171.672 61.535 173.753L54.3981 194.047C50.623 192.002 46.9916 190.459 43.5221 189.382C40.0526 188.324 36.8347 187.785 33.8505 187.785C31.891 187.785 30.2911 188.072 29.0507 188.611C27.8103 189.167 26.8755 189.903 26.2822 190.836C25.689 191.769 25.3834 192.827 25.3834 194.03C25.3834 195.627 25.8328 197.044 26.7137 198.246C27.5946 199.466 29.1945 200.776 31.4776 202.176C33.7606 203.576 37.0145 205.406 41.239 207.667C45.5894 209.928 49.2747 212.332 52.2769 214.898C55.279 217.464 57.5621 220.407 59.144 223.78C60.726 227.153 61.517 231.191 61.517 235.892L61.5529 235.928Z" fill="#252C2C"/>
<path d="M187.967 168.173L166.754 265.481H137.883L129.883 226.077C129.578 224.605 129.236 222.865 128.876 220.819C128.517 218.774 128.157 216.602 127.78 214.27C127.402 211.937 127.043 209.604 126.719 207.29C126.396 204.957 126.126 202.822 125.946 200.866C125.82 202.589 125.587 204.616 125.281 206.931C124.975 209.246 124.616 211.596 124.22 213.983C123.825 216.369 123.429 218.63 123.052 220.729C122.674 222.847 122.351 224.605 122.081 226.023L113.938 265.499H85.1926L63.7821 168.191H87.7813L96.5899 213.785C96.8596 215.203 97.1832 217.015 97.5966 219.204C97.9921 221.393 98.4056 223.78 98.8011 226.328C99.1966 228.876 99.5921 231.388 99.9696 233.882C100.347 236.376 100.653 238.583 100.868 240.539C101.174 237.919 101.57 235.084 102.037 232.052C102.504 229.019 103.026 225.969 103.601 222.937C104.176 219.904 104.716 217.069 105.237 214.449C105.74 211.829 106.208 209.658 106.603 207.918L115.196 168.191H136.732L144.804 207.918C145.2 209.748 145.667 211.991 146.206 214.683C146.746 217.374 147.285 220.245 147.842 223.295C148.399 226.364 148.903 229.378 149.37 232.375C149.838 235.371 150.197 238.081 150.467 240.521C150.682 238.171 151.06 235.371 151.563 232.106C152.067 228.84 152.606 225.574 153.163 222.326C153.721 219.061 154.224 216.262 154.655 213.911L163.662 168.191H187.931L187.967 168.173Z" fill="#252C2C"/>
<path d="M198.231 265.481V168.173H223.039V265.481H198.231Z" fill="#252C2C"/>
<path d="M260.917 265.481H236.378V168.173H288.529V188.539H260.917V208.241H286.39V228.607H260.917V265.481Z" fill="#252C2C"/>
<path d="M341.238 265.481H316.573V188.934H295.828V168.173H361.839V188.934H341.238V265.481Z" fill="#252C2C"/>
<path d="M421.702 265.481H369.3V168.173H421.702V188.539H394.036V204.975H419.635V225.341H394.036V244.774H421.702V265.481Z" fill="#252C2C"/>
<path d="M463.301 168.173C471.48 168.173 478.294 169.232 483.741 171.367C489.188 173.502 493.268 176.696 496.001 180.949C498.733 185.201 500.1 190.531 500.1 196.918C500.1 200.776 499.524 204.311 498.374 207.541C497.223 210.753 495.534 213.66 493.304 216.226C491.075 218.792 488.379 221.088 485.161 223.08L509.573 265.481H481.835L463.894 229.468H459.022V265.481H434.286V168.173H463.301ZM462.959 187.803H459.022V210.627H462.762C466.501 210.627 469.449 209.658 471.588 207.702C473.745 205.747 474.824 202.553 474.824 198.121C474.824 194.747 473.871 192.181 471.966 190.423C470.06 188.664 467.058 187.803 462.959 187.803Z" fill="#252C2C"/>
<defs>
<linearGradient id="paint0_linear_1_75" x1="53.5837" y1="95.019" x2="180.392" y2="-17.4662" gradientUnits="userSpaceOnUse">
<stop stop-color="white"/>
<stop offset="1" stop-color="#1D1D1B"/>
</linearGradient>
</defs>
</svg>
