<svg width="25" height="25" viewBox="0 0 25 25" fill="none" xmlns="http://www.w3.org/2000/svg">
<g id="Frame">
<path id="Vector" d="M7.29036 1.0415V3.12484H3.1237C2.54841 3.12484 2.08203 3.59121 2.08203 4.1665V20.8332C2.08203 21.4085 2.54841 21.8748 3.1237 21.8748H11.2014C10.0578 20.4482 9.3737 18.6372 9.3737 16.6665C9.3737 12.0641 13.1046 8.33317 17.707 8.33317C19.6778 8.33317 21.4887 9.01725 22.9154 10.1609V4.1665C22.9154 3.59121 22.449 3.12484 21.8737 3.12484H17.707V1.0415H15.6237V3.12484H9.3737V1.0415H7.29036ZM23.957 16.6665C23.957 20.1183 21.1588 22.9165 17.707 22.9165C14.2553 22.9165 11.457 20.1183 11.457 16.6665C11.457 13.2147 14.2553 10.4165 17.707 10.4165C21.1588 10.4165 23.957 13.2147 23.957 16.6665ZM16.6654 12.4998V17.098L19.0538 19.4864L20.5269 18.0133L18.7487 16.235V12.4998H16.6654Z" fill="white"/>
</g>
</svg>
