<svg width="25" height="25" viewBox="0 0 25 25" fill="none" xmlns="http://www.w3.org/2000/svg">
<g id="Frame" clip-path="url(#clip0_820_25887)">
<g id="Group">
<path id="Vector" d="M14.9112 12.3691C18.3213 12.3691 21.0953 9.59473 21.0953 6.18457C21.0953 2.77441 18.3213 0 14.9112 0C11.501 0 8.7266 2.77441 8.7266 6.18457C8.7266 9.59473 11.501 12.3691 14.9112 12.3691ZM14.1788 2.54932V2.38135C14.1788 1.97656 14.5064 1.64893 14.9112 1.64893C15.3155 1.64893 15.6436 1.97656 15.6436 2.38135V2.55029C16.5152 2.7373 17.1709 3.51367 17.1709 4.44043C17.1709 4.84473 16.8428 5.17285 16.4385 5.17285C16.0337 5.17285 15.7061 4.84473 15.7061 4.44043C15.7061 4.18213 15.4956 3.97168 15.2373 3.97168H14.5806C14.3223 3.97168 14.1119 4.18213 14.1119 4.44043C14.1119 4.51365 14.1292 4.58583 14.1622 4.6512C14.1951 4.71657 14.243 4.77331 14.3018 4.81689L14.9112 5.26807L16.3916 6.36377C16.878 6.72363 17.1709 7.29932 17.1748 7.90479V7.91162C17.1783 8.42822 16.9805 8.91553 16.6172 9.2832C16.3477 9.55615 16.0108 9.73926 15.6436 9.81641V9.98779C15.6436 10.3926 15.3155 10.7202 14.9112 10.7202C14.5064 10.7202 14.1788 10.3926 14.1788 9.98779V9.81885C13.8213 9.74268 13.4927 9.56689 13.2271 9.3042C12.8594 8.94141 12.6553 8.45703 12.6524 7.94043C12.6499 7.53613 12.9756 7.20605 13.3799 7.20361H13.3848C13.7871 7.20361 14.1148 7.52881 14.1172 7.93164C14.1175 7.99319 14.1299 8.05409 14.1537 8.11084C14.1776 8.16759 14.2124 8.21908 14.2561 8.26236C14.2999 8.30563 14.3518 8.33984 14.4088 8.36302C14.4658 8.38621 14.5269 8.39791 14.5884 8.39746C14.9931 8.39502 14.8424 8.3959 15.2442 8.39355C15.5041 8.3915 15.712 8.18052 15.71 7.92139V7.91455C15.709 7.76807 15.6382 7.62842 15.5201 7.54102L14.9112 7.09033L13.4302 5.99463C12.94 5.63135 12.647 5.05029 12.647 4.44043C12.647 3.51172 13.3047 2.73486 14.1788 2.54932ZM4.89062 15.8883C4.70287 15.5628 4.28583 15.4496 3.95834 15.6385L0.513126 17.6272C0.186905 17.8161 0.0749909 18.2333 0.263321 18.56L3.78451 24.6587C3.97299 24.9848 4.38998 25.0968 4.71679 24.9085L8.162 22.9192C8.48871 22.7309 8.60019 22.3136 8.41181 21.987L4.89062 15.8883ZM24.6313 14.6709C24.2998 14.2104 23.6582 14.1064 23.1982 14.438C21.8027 15.4434 19.123 17.374 18.9101 17.5278C18.813 17.6107 18.7099 17.6863 18.6016 17.7539C18.1802 18.019 17.6914 18.1606 17.1811 18.1606H13.6728C13.2685 18.1606 12.9404 17.833 12.9404 17.4282C12.9404 17.0229 13.269 16.6958 13.6728 16.6958H17.4248C17.9761 16.6958 18.4175 16.2368 18.3945 15.6846C18.373 15.1606 17.9258 14.7544 17.4014 14.7544H14.5454C14.352 14.5498 14.1401 14.3623 13.9131 14.1948C13.1323 13.6191 12.1675 13.2788 11.123 13.2788C9.2661 13.2788 7.41845 14.4487 6.65233 16.0103L9.64843 21.1992H15.2685C16.3721 21.1992 17.459 20.917 18.4155 20.3667C18.7471 20.1763 19.102 19.9473 19.4868 19.6709C21.0991 18.5127 24.3955 16.1064 24.3979 16.105C24.8589 15.7739 24.9634 15.1313 24.6313 14.6709Z" fill="white"/>
</g>
</g>
<defs>
<clipPath id="clip0_820_25887">
<rect width="25" height="25" fill="white"/>
</clipPath>
</defs>
</svg>
