<svg width="25" height="25" viewBox="0 0 25 25" fill="none" xmlns="http://www.w3.org/2000/svg">
<g id="Frame" clip-path="url(#clip0_820_25940)">
<g id="Group">
<path id="Vector" d="M23.9922 5.69533L19.3047 1.00783C19.2317 0.935418 19.1451 0.878133 19.0499 0.839254C18.9547 0.800376 18.8528 0.780669 18.75 0.781263H17.1875V7.03126C17.1875 7.44566 17.0229 7.84309 16.7299 8.13612C16.4368 8.42914 16.0394 8.59376 15.625 8.59376H9.375C8.9606 8.59376 8.56317 8.42914 8.27015 8.13612C7.97712 7.84309 7.8125 7.44566 7.8125 7.03126V0.781263H3.125C2.5034 0.781263 1.90726 1.02819 1.46772 1.46773C1.02818 1.90727 0.78125 2.50341 0.78125 3.12501V21.875C0.78125 22.4966 1.02818 23.0928 1.46772 23.5323C1.90726 23.9718 2.5034 24.2188 3.125 24.2188H4.6875V17.1875C4.6875 16.5659 4.93443 15.9698 5.37397 15.5302C5.81351 15.0907 6.40965 14.8438 7.03125 14.8438H17.9688C18.5904 14.8438 19.1865 15.0907 19.626 15.5302C20.0656 15.9698 20.3125 16.5659 20.3125 17.1875V24.2188H21.875C22.4966 24.2188 23.0927 23.9718 23.5323 23.5323C23.9718 23.0928 24.2188 22.4966 24.2188 21.875V6.25001C24.2193 6.1472 24.1996 6.04527 24.1608 5.95009C24.1219 5.8549 24.0646 5.76833 23.9922 5.69533Z" fill="white"/>
<path id="Vector_2" d="M9.375 0.78125H15.625V7.03125H9.375V0.78125ZM17.9688 16.4062H7.03125C6.82405 16.4062 6.62534 16.4886 6.47882 16.6351C6.33231 16.7816 6.25 16.9803 6.25 17.1875V24.2188H18.75V17.1875C18.75 16.9803 18.6677 16.7816 18.5212 16.6351C18.3747 16.4886 18.176 16.4062 17.9688 16.4062Z" fill="white"/>
</g>
</g>
<defs>
<clipPath id="clip0_820_25940">
<rect width="25" height="25" fill="white"/>
</clipPath>
</defs>
</svg>
