<svg width="26" height="26" viewBox="0 0 26 26" fill="none" xmlns="http://www.w3.org/2000/svg">
<g id="Parameter Image">
<g id="Group">
<path id="Vector" d="M17.3346 17.3333L13.0013 13L8.66797 17.3333" stroke="#2A3547" stroke-opacity="0.4" stroke-width="2" stroke-linecap="round" stroke-linejoin="round"/>
<path id="Vector_2" d="M13 13V22.75" stroke="#2A3547" stroke-opacity="0.4" stroke-width="2" stroke-linecap="round" stroke-linejoin="round"/>
<path id="Vector_3" d="M22.0897 19.9225C23.1463 19.3465 23.9811 18.435 24.4621 17.3319C24.9431 16.2288 25.0431 14.9969 24.7463 13.8306C24.4494 12.6644 23.7727 11.6302 22.8228 10.8913C21.8729 10.1524 20.704 9.75082 19.5006 9.75002H18.1356C17.8077 8.4817 17.1965 7.30422 16.348 6.3061C15.4995 5.30798 14.4358 4.51519 13.2368 3.98735C12.0379 3.4595 10.7348 3.21033 9.42569 3.25856C8.11656 3.3068 6.83539 3.65118 5.67851 4.26583C4.52163 4.88047 3.51914 5.74938 2.74641 6.80724C1.97368 7.86509 1.45081 9.08435 1.21713 10.3734C0.983443 11.6624 1.04501 12.9876 1.39722 14.2494C1.74942 15.5112 2.38308 16.6767 3.25057 17.6584" stroke="#2A3547" stroke-opacity="0.4" stroke-width="2" stroke-linecap="round" stroke-linejoin="round"/>
<path id="Vector_4" d="M17.3346 17.3333L13.0013 13L8.66797 17.3333" stroke="#2A3547" stroke-opacity="0.4" stroke-width="2" stroke-linecap="round" stroke-linejoin="round"/>
</g>
</g>
</svg>
